<?xml version="1.0" standalone="no"?>
<!DOCTYPE svg PUBLIC "-//W3C//DTD SVG 20010904//EN"
 "http://www.w3.org/TR/2001/REC-SVG-20010904/DTD/svg10.dtd">
<svg version="1.0" xmlns="http://www.w3.org/2000/svg"
 width="1563.000000pt" height="1563.000000pt" viewBox="0 0 1563.000000 1563.000000"
 preserveAspectRatio="xMidYMid meet">

<g transform="translate(0.000000,1563.000000) scale(0.100000,-0.100000)"
fill="#000000" stroke="none">
<path d="M7438 15461 c-12 -16 -92 -134 -175 -263 l-153 -233 -97 -47 c-121
-58 -152 -77 -328 -193 -223 -149 -372 -284 -556 -505 -67 -80 -172 -235 -209
-309 l-32 -65 -14 40 c-25 72 -52 198 -59 274 -4 41 -9 78 -11 82 -3 4 -30
-21 -62 -55 -107 -115 -192 -239 -292 -422 -18 -33 -38 -63 -44 -68 -6 -4 -45
-18 -86 -31 -102 -33 -326 -131 -555 -242 -533 -259 -1009 -574 -1415 -938
-231 -208 -542 -527 -702 -721 -73 -88 -258 -341 -344 -470 -54 -81 -103 -149
-110 -152 -12 -4 -164 46 -424 142 -161 59 -565 208 -707 261 -51 19 -99 34
-107 34 -10 0 56 -141 200 -430 118 -236 214 -432 214 -434 0 -2 26 -59 59
-127 121 -257 204 -455 203 -487 0 -15 -16 -58 -35 -97 -18 -38 -43 -95 -54
-125 -12 -30 -45 -116 -74 -190 -28 -74 -55 -148 -59 -165 -5 -16 -17 -59 -28
-95 -11 -36 -32 -103 -46 -150 -44 -141 -94 -340 -125 -497 -49 -245 -59 -307
-86 -557 -13 -121 -16 -131 -42 -156 -15 -14 -84 -77 -153 -140 -159 -144
-350 -331 -350 -342 0 -4 6 -8 13 -8 11 0 114 -77 153 -114 6 -6 26 -23 45
-38 19 -14 48 -38 64 -53 17 -15 48 -38 70 -52 22 -14 65 -44 95 -66 88 -65
136 -101 166 -122 15 -11 49 -36 75 -55 27 -19 74 -53 105 -75 31 -22 65 -49
75 -59 16 -17 19 -17 24 -3 4 8 2 71 -4 139 -12 140 -9 148 60 148 l37 0 10
-67 c6 -38 17 -138 26 -223 14 -132 36 -278 76 -505 38 -220 102 -492 144
-617 14 -42 26 -83 26 -91 0 -23 -63 -128 -75 -124 -25 8 -125 352 -196 677
-27 125 -89 496 -89 536 0 28 -8 37 -78 82 -109 73 -192 139 -184 147 4 5 -1
5 -10 2 -9 -3 -22 1 -28 9 -17 20 -50 18 -50 -3 0 -47 33 -321 51 -428 50
-297 96 -504 151 -690 17 -55 33 -113 37 -130 20 -78 115 -347 157 -443 26
-59 47 -120 47 -137 0 -16 -10 -77 -22 -135 -36 -168 -53 -399 -40 -565 18
-239 82 -508 151 -635 17 -30 58 -98 93 -150 73 -112 91 -146 138 -261 63
-158 104 -200 270 -277 75 -35 104 -56 200 -149 115 -110 152 -135 269 -177
38 -14 104 -50 154 -87 140 -101 243 -127 366 -95 148 39 256 89 400 184 l68
45 67 -56 c38 -30 136 -112 218 -181 83 -69 192 -155 243 -191 126 -88 402
-264 482 -307 286 -155 403 -210 690 -326 166 -67 498 -179 600 -202 19 -4 71
-17 115 -29 82 -21 248 -58 415 -91 110 -22 258 -44 417 -62 l112 -12 7 -42
c10 -66 4 -79 -36 -78 -123 1 -326 31 -630 90 -702 137 -1381 400 -1959 759
-152 94 -367 241 -496 339 -220 167 -244 182 -260 156 -9 -15 -201 -120 -266
-145 -91 -36 -221 -65 -291 -65 -35 0 -96 9 -136 20 -70 19 -214 86 -291 134
-20 13 -72 42 -116 66 -134 72 -186 110 -294 216 -85 84 -116 107 -170 130
-150 63 -211 127 -302 319 -23 48 -76 133 -117 188 -149 197 -229 377 -285
642 -50 232 -57 553 -18 800 38 240 39 219 -12 352 -105 273 -150 416 -216
678 -29 119 -38 157 -66 300 -36 188 -43 223 -55 293 -5 34 -15 88 -20 120 -6
31 -15 104 -21 162 -6 58 -15 110 -20 116 -6 7 -45 36 -87 65 -42 29 -79 56
-82 59 -6 8 -191 157 -230 185 -65 48 -278 238 -292 261 -5 7 7 23 30 40 20
15 64 52 97 80 167 145 378 327 461 396 50 43 94 85 98 94 3 9 15 86 26 172
30 229 41 293 89 512 18 80 37 168 43 195 6 28 14 61 18 75 4 14 13 43 19 65
12 48 55 194 83 285 33 109 149 441 173 495 27 62 45 116 45 134 0 11 -29 81
-65 156 -36 75 -65 139 -65 142 0 4 -116 241 -259 527 -142 287 -271 554 -287
595 l-29 73 -131 -6 c-141 -6 -164 -11 -164 -32 0 -7 31 -73 68 -146 38 -73
118 -230 179 -348 61 -118 121 -233 133 -255 13 -22 70 -131 126 -241 56 -111
114 -224 130 -250 60 -108 84 -157 84 -175 0 -11 -15 -59 -34 -107 -64 -166
-159 -459 -212 -652 -13 -47 -39 -139 -58 -205 -43 -149 -65 -249 -111 -485
-19 -102 -42 -205 -50 -230 -8 -25 -45 -84 -83 -130 -83 -105 -135 -176 -192
-260 -24 -36 -104 -149 -177 -252 -101 -142 -133 -194 -133 -217 0 -23 40 -91
163 -273 89 -134 186 -275 215 -314 29 -40 52 -76 52 -82 0 -6 4 -12 8 -14 5
-1 23 -25 41 -53 19 -27 56 -73 83 -101 l50 -51 18 -114 c11 -63 24 -145 31
-184 10 -64 28 -159 50 -275 5 -25 13 -61 18 -80 72 -269 89 -330 125 -450 14
-47 39 -123 56 -170 71 -193 83 -240 76 -294 -4 -28 -11 -82 -17 -121 -29
-224 -39 -412 -29 -545 21 -263 66 -469 149 -678 93 -234 186 -374 466 -702
266 -312 504 -527 772 -699 47 -30 277 -147 358 -183 102 -44 142 -57 222 -74
72 -15 86 -22 183 -96 418 -318 616 -452 1000 -670 109 -62 444 -233 540 -276
164 -72 629 -247 725 -272 17 -4 70 -20 120 -35 49 -14 144 -40 210 -56 66
-17 136 -34 155 -40 49 -12 433 -76 505 -83 33 -4 101 -11 150 -16 50 -5 157
-14 239 -21 148 -12 149 -12 186 -45 20 -18 66 -77 102 -131 80 -119 223 -344
252 -395 l21 -38 115 0 115 0 29 53 c34 61 247 383 315 474 25 35 53 65 61 68
38 12 164 25 255 25 55 0 136 4 180 10 44 5 125 14 180 20 490 55 1035 207
1615 452 191 81 471 215 580 278 41 23 100 56 130 73 30 16 86 50 123 74 37
23 70 43 73 43 11 0 259 167 348 235 138 103 373 294 402 325 15 15 45 33 68
40 139 41 203 66 341 134 296 146 621 383 813 594 505 557 688 879 794 1397
20 101 22 135 21 415 -1 168 -6 336 -11 375 -10 78 -5 101 52 255 19 52 49
133 66 180 32 87 143 427 160 490 5 19 19 67 30 105 11 39 31 131 45 205 14
74 30 153 35 175 5 22 19 85 31 140 21 97 23 101 79 160 93 97 238 297 359
495 21 36 75 116 120 179 44 62 83 126 86 141 5 24 -12 54 -112 201 -65 96
-146 216 -180 268 -79 118 -193 259 -271 334 -59 55 -61 59 -71 130 -11 67
-20 118 -42 227 -5 25 -18 92 -30 150 -37 187 -165 651 -228 820 -33 92 -111
311 -138 390 -22 66 -24 79 -13 110 12 35 185 386 200 405 4 6 52 98 106 205
54 107 127 247 163 310 35 63 76 138 91 165 37 70 90 165 112 200 10 17 18 40
18 52 0 20 -6 22 -92 28 -51 4 -118 5 -148 3 l-55 -3 -154 -305 c-422 -837
-541 -1084 -541 -1123 0 -8 114 -308 160 -422 58 -142 183 -570 231 -790 5
-22 18 -80 28 -130 22 -97 71 -382 92 -534 l13 -94 71 -55 c62 -50 342 -288
355 -302 8 -9 162 -141 210 -180 23 -19 51 -39 61 -44 36 -17 28 -35 -38 -93
-36 -32 -87 -76 -112 -99 -110 -97 -354 -297 -446 -364 -55 -40 -101 -74 -103
-75 -2 -2 -8 -34 -13 -71 -32 -213 -63 -400 -80 -479 -45 -201 -103 -440 -118
-485 -5 -14 -21 -65 -36 -115 -43 -140 -142 -408 -201 -543 l-53 -122 11 -108
c15 -150 15 -549 0 -647 -29 -186 -66 -339 -119 -495 -47 -140 -85 -214 -186
-362 -46 -68 -108 -168 -137 -223 -100 -188 -144 -235 -275 -295 -78 -36 -102
-54 -175 -129 -90 -92 -174 -156 -280 -214 -36 -19 -90 -50 -120 -67 -178
-105 -325 -160 -426 -160 -133 1 -399 98 -530 195 -36 27 -38 27 -144 -60
-171 -140 -417 -318 -585 -422 -603 -375 -1331 -651 -2045 -777 -258 -45 -613
-86 -627 -72 -10 10 -3 99 9 114 6 6 30 12 55 12 24 0 74 4 111 9 37 5 110 15
162 21 208 24 510 85 760 153 508 139 955 328 1390 589 311 186 575 382 773
575 l108 105 33 -25 c131 -100 406 -217 508 -217 73 0 170 41 279 117 42 29
114 67 160 84 107 41 152 72 269 184 77 74 114 102 196 143 168 86 189 113
300 375 20 48 61 127 91 174 77 122 106 183 142 298 82 264 101 393 101 669 0
111 -5 233 -11 271 -5 39 -10 106 -11 150 -1 83 -2 80 65 225 73 158 110 254
171 440 84 258 79 241 116 395 80 333 96 420 125 665 18 151 19 210 4 210 -6
0 -54 -30 -106 -67 -53 -38 -105 -74 -117 -82 -92 -63 -114 -85 -120 -120 -4
-20 -11 -63 -16 -96 -24 -147 -83 -449 -106 -544 -23 -91 -42 -157 -114 -396
-31 -105 -75 -204 -86 -197 -6 4 -25 32 -42 63 l-32 57 24 64 c14 36 42 127
64 204 61 214 76 281 138 608 30 162 49 297 64 451 6 66 13 140 16 164 l6 43
36 -6 c20 -3 45 -6 55 -6 17 0 18 -10 16 -135 -2 -74 -1 -137 2 -139 2 -3 88
53 189 124 102 71 208 145 235 164 48 33 310 227 405 299 25 19 55 37 68 41
39 13 33 20 -118 156 -117 105 -198 180 -314 290 -49 47 -97 93 -107 102 -22
21 -24 31 -39 188 -6 69 -15 150 -20 180 -5 30 -16 96 -25 145 -22 137 -72
345 -159 668 -46 168 -184 556 -249 699 -45 98 -78 200 -71 222 11 36 600
1216 654 1310 59 101 57 117 -12 96 -189 -57 -381 -126 -649 -234 -262 -104
-540 -206 -563 -206 -5 0 -76 106 -76 114 0 12 -147 218 -229 321 -294 372
-696 779 -1040 1053 -36 28 -93 74 -126 100 -144 115 -485 344 -704 472 -109
64 -451 239 -585 300 -84 38 -308 127 -396 158 -126 45 -160 61 -160 77 0 17
144 233 190 285 66 74 98 107 152 156 39 35 54 55 48 64 -7 11 -58 14 -237 14
-254 1 -300 -5 -618 -85 l-80 -20 -160 40 c-310 77 -536 111 -826 127 -64 3
-120 9 -126 12 -17 12 -118 154 -226 319 -58 88 -109 163 -114 166 -5 3 -38
-39 -74 -93 -104 -162 -237 -352 -251 -361 -7 -5 -39 -9 -70 -9 l-57 0 15 53
c54 185 102 286 234 497 64 102 131 210 148 241 49 86 55 88 88 32 33 -56 220
-339 333 -503 52 -74 88 -117 103 -121 45 -12 198 -19 198 -10 0 6 -24 38 -52
72 -29 34 -71 85 -92 113 -21 28 -60 78 -86 111 -48 60 -88 117 -274 387 -114
165 -154 218 -166 218 -5 0 -19 -13 -32 -29z m65 -1073 c19 -35 47 -85 62
-112 15 -26 23 -51 18 -55 -4 -4 -39 -13 -78 -20 -142 -25 -260 -69 -509 -191
-90 -44 -172 -80 -184 -80 -11 0 -24 -4 -27 -10 -3 -5 -13 -10 -22 -10 -22 0
-134 -55 -160 -79 -12 -12 -27 -21 -33 -21 -5 0 -10 -5 -10 -10 0 -6 -11 -15
-24 -20 -14 -5 -32 -20 -41 -34 -9 -14 -41 -41 -71 -61 -30 -20 -66 -47 -81
-61 -45 -42 -52 -26 -9 20 23 24 59 63 81 87 22 24 80 77 130 117 184 150 406
258 630 307 44 9 89 21 101 25 18 7 149 204 167 253 11 29 24 19 60 -45z
m-901 -109 c-56 -89 -112 -212 -112 -244 0 -8 -4 -15 -10 -15 -5 0 -10 -7 -10
-15 0 -8 -4 -15 -9 -15 -5 0 -12 -11 -15 -25 -4 -14 -11 -25 -17 -25 -6 0 -7
-25 -3 -69 4 -55 3 -71 -9 -78 -8 -4 -20 -20 -28 -34 -13 -24 -210 -209 -223
-209 -19 0 -136 -162 -136 -189 0 -4 -17 -33 -37 -66 -21 -33 -50 -87 -65
-120 -26 -57 -27 -58 -28 -27 0 48 36 220 66 310 56 172 173 378 312 552 118
147 362 383 379 366 2 -2 -23 -46 -55 -97z m1608 -238 c142 -21 360 -71 360
-82 0 -4 -12 -10 -27 -13 -23 -5 -338 -25 -396 -26 -10 0 -16 -4 -13 -8 2 -4
-16 -14 -42 -20 -26 -7 -61 -17 -78 -22 -17 -6 -38 -10 -47 -10 -10 0 -25 -4
-35 -9 -9 -5 -57 -21 -107 -36 -162 -49 -147 -43 -326 -128 -75 -36 -165 -84
-199 -108 -34 -24 -73 -51 -86 -60 -13 -9 -36 -27 -52 -40 -15 -13 -63 -54
-107 -91 -252 -210 -497 -551 -602 -836 -44 -123 -46 -132 -51 -262 -4 -129
-3 -141 32 -279 19 -80 34 -147 32 -149 -2 -2 -24 25 -47 60 -147 216 -219
571 -174 859 23 150 43 216 105 346 75 157 123 226 239 347 116 119 229 207
346 266 58 30 116 72 177 127 50 45 116 94 147 109 31 16 58 31 61 34 12 13
168 40 315 54 98 10 447 -5 575 -23z m1120 -1 c-14 -11 -30 -20 -36 -20 -5 0
-34 -11 -62 -25 -29 -14 -54 -25 -57 -25 -11 0 -142 -83 -194 -123 -58 -45
-111 -95 -111 -105 0 -3 -71 -76 -158 -161 -87 -86 -172 -174 -188 -196 -16
-22 -40 -51 -54 -65 -14 -14 -38 -43 -54 -65 -17 -22 -33 -42 -37 -45 -4 -3
-27 -31 -50 -62 -135 -175 -129 -169 -152 -162 -12 4 -34 15 -49 25 -14 11
-32 19 -39 19 -19 0 -89 33 -89 42 0 4 17 27 39 50 21 24 93 104 158 178 268
301 484 483 724 609 157 82 340 149 409 150 l25 1 -25 -20z m-3684 -457 c-4
-87 -9 -185 -12 -218 -5 -60 -5 -60 14 -38 23 26 32 21 32 -19 0 -28 0 -28 30
-13 27 14 30 14 40 -3 8 -13 12 -14 17 -4 6 16 38 -44 72 -136 13 -34 28 -65
32 -68 14 -8 10 -64 -11 -165 -11 -52 -20 -106 -20 -121 0 -36 -18 -36 -22 -1
-2 14 -9 29 -17 31 -12 4 -13 -8 -7 -67 3 -40 13 -89 22 -109 9 -20 24 -70 35
-110 29 -107 47 -158 90 -250 21 -46 39 -86 39 -89 0 -25 -84 87 -125 166 -36
71 -85 311 -85 421 0 103 -17 261 -30 274 -5 5 -12 -7 -16 -30 -4 -22 -17 -63
-30 -93 -13 -29 -24 -61 -24 -71 0 -9 -7 -30 -15 -47 -16 -32 -31 -126 -44
-273 -15 -163 -51 -200 -63 -64 -12 132 -16 135 -13 9 6 -224 23 -500 35 -555
21 -96 41 -184 46 -202 9 -29 -10 -21 -23 10 -36 80 -71 200 -113 387 -5 22
-12 51 -15 65 -12 47 -34 305 -35 400 0 91 18 287 40 435 26 172 101 516 142
645 6 19 12 41 14 48 2 6 9 12 15 12 8 0 10 -42 5 -157z m3820 -127 c104 -36
188 -68 239 -91 17 -8 93 -41 170 -73 157 -67 436 -202 447 -216 7 -11 -45
-92 -64 -99 -7 -2 -75 27 -150 64 -251 125 -499 234 -698 305 l-95 34 1 38 c1
52 10 72 32 72 10 0 63 -15 118 -34z m-4051 -118 c-19 -103 -26 -117 -64 -129
-212 -67 -660 -292 -1001 -504 -176 -109 -248 -159 -417 -287 -216 -163 -325
-259 -538 -472 -341 -342 -564 -608 -765 -913 -30 -46 -61 -83 -68 -83 -13 0
-16 2 -64 42 l-27 23 105 159 c185 279 410 545 734 866 186 185 226 221 395
362 254 211 554 414 840 568 44 23 114 62 155 85 112 63 333 169 500 238 216
90 224 92 215 45z m3926 -293 c174 -70 310 -131 466 -211 159 -80 203 -109
203 -129 0 -15 -93 -101 -127 -117 -29 -14 -50 0 -200 129 -128 111 -245 188
-390 258 -91 44 -93 45 -93 80 0 22 5 35 13 35 7 0 65 -20 128 -45z m1263
-138 c17 -13 60 -41 96 -62 170 -102 480 -326 660 -479 95 -80 340 -306 415
-381 81 -83 271 -289 335 -365 40 -47 82 -96 94 -110 44 -51 204 -267 240
-324 41 -65 41 -67 -28 -88 -37 -11 -40 -11 -55 11 -26 40 -181 232 -311 387
-69 82 -235 259 -370 395 -243 243 -279 278 -395 374 -33 28 -67 56 -75 64
-18 18 -215 163 -295 219 -33 23 -103 72 -155 108 -52 37 -124 83 -159 102
l-64 35 7 59 c9 87 12 91 60 55z m-5519 -188 c-4 -28 -20 -90 -35 -139 -38
-120 -67 -247 -81 -355 -6 -49 -17 -99 -24 -110 -7 -11 -43 -38 -81 -60 -129
-75 -393 -282 -552 -432 l-56 -53 32 0 c18 0 55 11 82 25 28 14 50 22 50 19 0
-4 -35 -43 -79 -88 -95 -98 -144 -162 -171 -223 -26 -60 -25 -70 9 -122 57
-85 154 -144 306 -184 48 -13 87 -27 88 -31 1 -5 -22 -15 -52 -22 -92 -24
-212 -87 -262 -137 -75 -75 -129 -198 -129 -293 0 -29 -4 -56 -10 -59 -5 -3
-10 1 -10 10 0 34 -56 129 -98 166 -84 74 -176 98 -241 64 -45 -23 -143 -137
-231 -266 -44 -66 -80 -124 -80 -129 0 -6 -4 -10 -10 -10 -15 0 -12 100 6 230
26 185 12 233 -81 290 -61 37 -69 35 -111 -22 -121 -167 -214 -304 -214 -316
0 -4 -7 -16 -15 -26 -19 -26 -30 -16 -113 103 -37 53 -81 115 -99 139 -18 24
-33 50 -33 57 0 18 160 259 259 390 201 267 533 626 746 807 225 190 465 366
651 478 59 36 146 89 193 119 47 29 136 78 196 108 61 30 139 69 175 88 36 18
69 34 73 34 5 1 6 -22 2 -50z m5210 -41 c-10 -34 -31 -64 -114 -163 -93 -111
-109 -126 -246 -249 -60 -54 -114 -103 -120 -110 -22 -25 -124 -105 -184 -145
-61 -40 -102 -48 -100 -18 0 7 61 64 136 127 261 220 379 327 498 453 66 69
124 126 128 127 5 0 5 -10 2 -22z m-5055 -208 c-5 -52 -10 -214 -10 -360 0
-250 -1 -267 -21 -299 -38 -62 -44 -32 -44 212 1 223 5 272 48 496 19 99 22
110 29 80 4 -19 3 -77 -2 -129z m2687 -383 c45 -24 117 -107 147 -170 56 -118
64 -232 24 -332 -37 -92 -145 -212 -218 -242 -19 -8 -48 -21 -65 -28 -16 -7
-42 -17 -56 -23 -45 -18 -160 -24 -224 -12 -33 6 -82 15 -110 19 -53 10 -162
47 -182 64 -7 5 -22 7 -33 4 -12 -3 -20 0 -20 8 0 8 -7 11 -19 8 -10 -3 -22 0
-25 6 -4 6 -16 11 -27 11 -22 0 -86 39 -93 57 -6 15 35 100 63 132 11 13 18
27 16 31 -3 4 13 27 36 51 22 24 54 63 72 87 159 214 284 299 507 342 61 12
172 5 207 -13z m1176 -74 c4 -3 -27 -28 -68 -56 -114 -75 -211 -185 -271 -303
-27 -55 -52 -100 -56 -102 -5 -2 -8 -12 -8 -23 0 -21 -15 -25 -26 -8 -13 22
-46 -78 -64 -198 -13 -78 -24 -95 -72 -98 -18 -2 -38 -11 -45 -21 -21 -29 -28
-7 -26 84 4 199 121 448 277 589 94 85 167 121 266 133 82 10 86 11 93 3z
m221 -110 c93 -18 199 -140 234 -267 6 -22 9 -43 6 -47 -3 -5 -22 4 -44 20
-112 81 -232 57 -341 -68 -82 -93 -129 -210 -137 -337 l-4 -82 -37 5 c-49 7
-59 -8 -67 -96 -8 -78 -8 -78 -85 -105 -86 -30 -87 -29 -96 149 -8 170 20 321
84 464 55 122 181 275 271 328 52 31 129 53 161 47 13 -3 37 -8 55 -11z m1766
-108 c1 -35 40 -109 78 -148 43 -45 86 -69 165 -92 83 -24 75 -40 -38 -74 -91
-28 -164 -106 -206 -221 -12 -33 -25 -58 -29 -55 -4 2 -17 31 -29 63 -28 77
-67 135 -116 170 -40 29 -62 38 -143 63 -58 17 -61 26 -15 45 117 47 165 77
207 130 23 30 50 78 61 107 25 73 35 84 51 55 8 -13 14 -32 14 -43z m-5025 10
c106 -28 187 -72 310 -169 87 -68 176 -173 214 -251 22 -46 12 -94 -31 -146
-16 -18 -28 -36 -28 -41 0 -4 -6 -8 -13 -8 -6 0 -18 -14 -26 -31 -7 -17 -24
-34 -37 -40 -14 -5 -27 -16 -30 -24 -4 -8 -13 -15 -21 -15 -8 0 -27 -8 -41
-18 -62 -42 -243 -46 -336 -7 -20 9 -36 13 -36 9 0 -17 -84 64 -101 98 -52
102 -64 164 -62 333 0 128 4 172 20 220 31 99 89 123 218 90z m-662 -125 c17
-29 17 -30 -32 -132 -27 -57 -57 -129 -66 -160 -9 -32 -24 -63 -33 -70 -10 -7
-23 -24 -29 -38 l-12 -25 0 28 c-1 33 -18 36 -30 5 -33 -88 -35 -110 -37 -326
-1 -123 -5 -226 -8 -229 -7 -8 -44 56 -56 97 -87 296 -27 613 150 804 82 88
121 100 153 46z m118 -172 c12 -22 10 -55 -11 -233 -5 -44 -9 -142 -9 -217
l-1 -138 -27 -6 c-16 -3 -33 -7 -39 -9 -18 -5 -29 8 -43 52 -17 52 -9 274 13
348 37 128 78 225 96 225 5 0 15 -10 21 -22z m3945 -233 c26 -26 26 -49 -2
-111 -19 -43 -83 -99 -97 -85 -6 6 -10 44 -9 86 2 119 50 168 108 110z m3984
-90 c0 -3 -24 -33 -53 -67 -84 -100 -107 -133 -232 -318 -65 -96 -135 -201
-157 -232 -21 -31 -38 -62 -38 -68 0 -5 -4 -10 -10 -10 -5 0 -10 -6 -10 -13 0
-7 -8 -22 -18 -33 -10 -10 -21 -26 -24 -34 -15 -40 -117 -180 -124 -169 -5 8
-9 7 -16 -5 -5 -9 -18 -16 -28 -16 -23 0 -23 2 -9 -56 8 -31 8 -49 1 -56 -7
-7 -12 3 -17 30 -5 30 -10 39 -21 35 -11 -4 -13 -14 -8 -39 4 -22 2 -34 -5
-34 -6 0 -11 -5 -11 -12 0 -12 -58 -68 -71 -68 -14 0 -20 -33 -7 -41 7 -4 9
-11 6 -15 -11 -10 -38 22 -39 48 -1 13 -3 16 -5 8 -3 -8 -20 -25 -39 -38 -39
-25 -49 -58 -15 -47 13 4 20 2 20 -7 0 -7 -9 -19 -20 -26 -27 -16 -25 -32 3
-33 16 -1 18 -2 5 -6 -10 -2 -18 -11 -18 -19 0 -8 -4 -14 -9 -14 -14 0 -23 18
-13 24 13 8 2 66 -12 66 -6 0 -41 -29 -76 -65 -35 -36 -68 -65 -72 -65 -5 0
-28 -19 -53 -42 -25 -23 -58 -49 -75 -58 -107 -54 -198 -99 -215 -105 -20 -7
-20 -7 -1 -14 17 -7 17 -8 3 -14 -8 -3 -18 -1 -20 6 -3 9 -16 8 -53 -5 -27 -9
-75 -20 -108 -24 -38 -4 -53 -10 -45 -15 8 -5 24 -9 37 -9 12 0 22 -4 22 -10
0 -5 -22 -10 -50 -10 -27 0 -50 5 -50 10 0 6 -32 10 -77 9 -43 0 -71 -3 -63
-6 8 -4 21 -12 28 -20 12 -12 2 -13 -67 -11 -58 2 -84 -1 -90 -10 -4 -7 -30
-14 -57 -16 -60 -5 -59 -5 -52 -12 3 -3 43 -8 89 -11 46 -3 86 -7 88 -9 2 -2
-62 -4 -142 -4 -81 0 -147 4 -147 8 0 8 -389 25 -570 25 -230 0 -497 -7 -512
-15 -9 -4 -19 -4 -22 1 -6 9 62 53 102 65 16 6 22 3 22 -8 0 -22 75 -22 84 -1
3 8 10 15 16 15 6 0 34 15 63 33 47 29 309 162 399 201 21 9 65 26 99 36 34
11 67 24 73 28 6 5 31 14 56 21 25 8 73 24 108 37 34 13 68 24 76 24 17 0 159
46 203 66 17 8 33 14 36 14 3 0 34 13 69 29 35 15 72 32 83 36 19 7 19 8 -5
16 -16 5 -6 6 26 2 33 -3 54 -1 58 6 4 6 23 11 42 11 37 0 48 20 12 21 -13 0
6 9 42 20 36 11 80 27 98 35 18 8 39 14 47 14 9 0 23 4 33 9 9 5 32 16 50 23
31 12 26 13 -75 18 -59 3 -155 2 -213 -1 -58 -4 -168 -10 -245 -14 -147 -8
-151 -17 -12 -31 l69 -7 -33 -14 c-47 -20 -157 -13 -171 10 -7 14 -24 17 -81
17 -81 0 -259 -24 -301 -39 -15 -6 -42 -11 -61 -11 -19 0 -37 -5 -41 -12 -5
-8 2 -9 23 -5 17 3 43 2 59 -3 29 -8 29 -8 4 -11 -14 -1 -37 -1 -52 0 -16 1
-28 -3 -28 -10 0 -9 23 -11 88 -7 l87 5 -95 -24 c-52 -13 -122 -31 -155 -39
-33 -8 -69 -18 -80 -23 -11 -5 -40 -14 -65 -21 -25 -6 -53 -16 -62 -21 -10 -5
-28 -9 -41 -9 -13 0 -28 -5 -34 -11 -6 -6 -21 -9 -34 -6 -22 4 -21 5 9 12 17
4 32 11 32 16 0 4 12 10 28 12 26 4 26 4 5 12 -34 11 -28 28 6 20 24 -5 32 -2
41 14 6 12 17 21 25 21 8 0 15 5 15 10 0 6 18 10 40 10 22 0 40 -4 40 -10 0
-5 -10 -10 -23 -10 -13 0 -32 -7 -43 -15 -18 -14 -18 -14 7 -15 15 0 40 7 55
15 16 8 36 15 44 15 8 0 33 5 54 11 48 13 30 30 -19 19 -48 -11 -35 15 13 28
l37 10 -39 1 c-21 1 -66 -8 -100 -19 -33 -10 -101 -31 -151 -46 -49 -14 -98
-30 -107 -35 -10 -5 -26 -9 -36 -9 -10 0 -23 -5 -29 -11 -6 -6 -58 -26 -115
-45 -56 -19 -125 -44 -153 -55 -27 -12 -68 -30 -90 -39 -22 -10 -51 -21 -65
-25 -14 -4 -52 -18 -85 -32 -167 -69 -165 -69 -295 -152 -30 -20 -116 -67
-190 -104 -74 -38 -160 -82 -191 -98 -31 -16 -62 -29 -69 -29 -6 0 -23 -9 -37
-20 -14 -11 -33 -20 -42 -20 -10 0 -21 -4 -26 -9 -12 -11 -95 -24 -95 -15 0
10 131 133 163 152 15 9 27 20 27 25 0 13 187 197 200 197 5 0 10 6 10 13 0
19 94 110 99 96 2 -6 -3 -16 -10 -21 -12 -8 -12 -9 0 -6 21 6 39 39 25 45 -7
2 12 29 42 60 40 41 57 53 67 45 14 -12 56 13 42 25 -4 5 -10 2 -12 -4 -5 -15
-33 -18 -33 -4 0 5 12 23 28 39 15 17 50 57 77 89 67 77 304 315 383 383 35
30 59 56 53 58 -9 3 -218 -97 -246 -118 -5 -4 -46 -26 -90 -50 -89 -47 -273
-177 -349 -245 -28 -25 -53 -45 -57 -45 -5 0 -19 -10 -31 -22 -40 -39 -114
-102 -143 -123 -16 -11 -43 -33 -61 -50 -18 -16 -41 -37 -51 -45 -56 -45 -54
-44 -63 -31 -5 9 -10 10 -14 2 -4 -6 -2 -11 5 -11 8 0 8 -4 -1 -15 -7 -9 -21
-13 -31 -10 -11 4 -19 2 -19 -4 0 -5 -9 -13 -20 -16 -11 -4 -47 -34 -80 -67
-61 -61 -83 -69 -62 -24 13 29 189 251 282 356 36 41 79 90 96 109 49 57 289
267 393 345 224 167 496 305 741 378 181 53 290 70 492 75 197 5 296 -1 488
-33 92 -15 157 -29 365 -79 243 -59 458 -78 613 -55 243 36 754 221 1187 429
47 23 45 22 45 16z m-6500 -71 c77 -17 181 -53 195 -65 5 -5 16 -9 25 -9 10 0
112 -47 228 -105 116 -57 221 -107 234 -110 16 -4 42 6 88 35 103 64 302 161
324 158 12 -2 22 -12 24 -23 2 -11 7 -29 12 -40 24 -55 35 -141 35 -280 0
-189 -19 -255 -106 -371 -252 -337 -778 -564 -1314 -567 -123 0 -175 3 -224
17 -247 67 -518 322 -595 558 -35 109 -41 156 -41 345 0 203 6 231 43 206 147
-99 270 -163 312 -163 25 0 137 75 228 154 114 99 255 209 332 259 32 21 115
21 200 1z m-5260 -138 c277 -60 618 -160 724 -213 82 -41 197 -172 331 -378
43 -66 92 -140 108 -165 40 -60 94 -110 121 -110 12 0 26 -4 32 -8 26 -24 189
-72 313 -92 112 -19 188 -9 561 75 257 57 488 85 712 85 215 0 245 -12 443
-180 208 -176 303 -282 208 -231 -37 19 -98 41 -114 41 -25 0 0 -27 84 -88 75
-56 162 -136 232 -212 6 -6 35 -35 65 -64 137 -134 169 -181 147 -219 -6 -12
-12 -23 -13 -25 -3 -9 -64 23 -64 34 0 18 -187 204 -206 204 -22 0 -17 -13 17
-46 17 -16 46 -51 64 -79 44 -64 79 -97 133 -125 31 -16 40 -26 32 -34 -7 -7
-33 2 -91 32 -44 23 -87 42 -95 42 -8 0 -17 7 -20 15 -4 8 -11 15 -18 15 -12
0 -80 35 -100 51 -47 40 -60 49 -69 49 -6 0 -20 8 -31 19 -21 18 -177 91 -197
91 -5 0 -42 15 -82 34 -40 18 -88 38 -107 45 -114 37 -166 51 -190 51 -15 0
-56 10 -91 22 -35 12 -90 22 -122 22 -42 1 -56 4 -52 13 3 10 -11 13 -56 13
-33 0 -68 4 -77 9 -10 5 -58 10 -107 12 -50 1 -103 6 -120 11 -22 6 -33 4 -41
-7 -6 -8 -22 -15 -35 -15 -21 0 -22 1 -5 13 16 12 12 14 -35 14 -30 -1 -42 -2
-26 -4 15 -3 27 -8 27 -14 0 -14 -232 -5 -345 14 -55 9 -123 17 -151 17 -27 0
-54 4 -60 10 -6 6 -15 6 -24 0 -13 -8 -12 -10 2 -10 10 0 33 -9 53 -20 20 -11
43 -20 52 -20 9 0 30 -4 47 -9 17 -5 63 -15 101 -21 39 -7 86 -16 105 -21 19
-5 134 -33 255 -63 521 -129 708 -196 985 -352 47 -27 87 -52 88 -56 2 -4 10
-8 17 -8 7 0 15 -3 17 -7 2 -5 29 -21 61 -38 59 -30 87 -53 51 -42 -68 21
-246 69 -284 77 -25 5 -83 18 -130 29 -204 45 -570 81 -830 81 -122 0 -433
-20 -535 -35 -22 -3 -51 -12 -65 -20 l-25 -14 26 -1 c16 0 33 -10 47 -30 29
-39 28 -45 -7 -24 -22 13 -32 14 -47 6 -17 -10 -15 -11 14 -12 17 0 32 -5 32
-11 0 -7 10 -9 25 -5 18 5 25 2 25 -9 0 -8 5 -15 11 -15 9 0 139 -125 139
-133 0 -2 27 -32 61 -67 65 -68 87 -106 69 -124 -7 -7 -16 -7 -30 2 -14 8 -21
9 -26 0 -8 -12 -273 -4 -349 11 l-40 8 48 8 c56 9 175 -1 193 -16 9 -7 27 -7
56 -1 l43 10 -47 1 c-27 1 -48 5 -48 10 0 5 -26 12 -57 16 -32 4 -62 10 -68
13 -5 4 -23 6 -40 5 -21 -1 -23 0 -7 4 17 3 22 11 22 34 0 27 3 29 38 29 20 0
50 7 65 15 15 8 25 10 22 5 -4 -6 -2 -10 3 -10 6 0 12 17 14 38 4 29 0 41 -19
59 -17 16 -23 18 -23 8 0 -8 4 -15 9 -15 5 0 11 -9 14 -21 4 -16 2 -19 -10
-15 -13 5 -14 4 -3 -9 10 -13 9 -15 -7 -15 -28 0 -45 20 -32 37 8 9 7 14 -5
19 -24 9 -47 -3 -40 -21 4 -10 0 -15 -11 -15 -9 0 -19 9 -22 19 -6 25 -54 14
-68 -17 -10 -23 -30 -29 -40 -11 -4 6 1 16 11 24 11 7 15 17 10 22 -5 4 -11 2
-13 -4 -3 -7 -12 -13 -20 -13 -10 0 -13 -6 -9 -16 11 -30 -17 -93 -48 -106
-16 -6 -24 -14 -18 -16 12 -4 17 -32 7 -32 -3 0 -36 8 -73 19 -116 32 -242
100 -242 131 0 6 -4 9 -9 8 -11 -4 -102 91 -120 125 -8 15 -18 27 -23 27 -4 0
-20 19 -35 43 -16 23 -34 48 -41 55 -19 21 -44 73 -38 80 4 3 14 -5 23 -17 12
-18 17 -20 24 -10 13 20 11 29 -6 29 -8 0 -22 16 -31 35 -9 19 -20 35 -24 35
-4 0 -12 11 -18 25 -11 23 -10 25 7 16 10 -6 22 -22 25 -36 4 -15 17 -30 31
-35 14 -5 25 -16 25 -23 0 -8 10 -18 22 -24 l22 -10 -22 -19 c-27 -22 -28 -35
-4 -55 9 -9 22 -25 29 -35 10 -18 12 -18 18 -2 4 11 1 24 -10 34 -19 19 -16
49 5 49 9 0 16 -11 18 -25 4 -36 34 -53 58 -35 18 14 18 15 -4 21 -16 5 -24
16 -28 46 -5 27 -14 43 -28 49 -47 22 -70 39 -112 85 -46 50 -57 77 -26 68 10
-4 13 -3 6 3 -6 4 -16 18 -23 31 -16 30 -35 28 -29 -3 6 -31 -6 -32 -36 -2
-18 18 -25 20 -35 10 -22 -24 -31 -18 -96 67 -28 35 -58 73 -67 84 -10 11 -20
28 -24 38 -3 10 -9 18 -13 18 -11 0 -33 51 -26 59 4 3 12 -2 20 -12 7 -10 19
-15 28 -12 9 4 21 -3 31 -16 8 -13 18 -20 21 -17 8 7 -5 38 -16 38 -5 0 -9 6
-9 13 0 6 -18 32 -41 57 -100 111 -179 220 -179 248 0 10 -4 22 -9 27 -21 22
-50 85 -75 165 -15 47 -32 89 -37 94 -5 6 -9 16 -9 23 0 51 -254 528 -316 594
-13 14 -24 28 -24 32 0 11 50 8 120 -7z m10260 -796 c0 -6 -15 -10 -34 -8 -19
1 -32 6 -30 10 8 12 64 10 64 -2z m-9940 -130 c5 -14 14 -32 19 -40 25 -42 44
-90 39 -96 -8 -8 -38 20 -38 36 0 6 -9 30 -20 52 -11 23 -20 50 -20 59 0 10
-4 19 -8 21 -5 2 -11 19 -15 38 l-6 35 19 -40 c11 -22 24 -51 30 -65z m9011
48 c-18 -5 -41 -6 -50 -2 -13 5 -11 8 9 13 14 4 36 5 50 2 24 -4 23 -5 -9 -13z
m169 5 c-8 -3 -18 -10 -21 -15 -3 -5 -28 -8 -55 -6 l-49 3 55 11 c63 13 95 16
70 7z m1513 -43 c-17 -30 -33 -39 -33 -20 0 13 32 50 43 50 4 0 0 -13 -10 -30z
m-1040 3 c-7 -2 -19 -2 -25 0 -7 3 -2 5 12 5 14 0 19 -2 13 -5z m982 -93 c-10
-18 -21 -38 -26 -44 -50 -62 -59 -75 -59 -82 0 -5 -10 -21 -23 -36 -12 -14
-42 -52 -66 -82 -58 -74 -66 -80 -66 -51 0 13 3 21 6 20 10 -7 79 84 79 104 0
13 7 21 16 21 9 0 18 9 21 20 3 11 11 20 19 20 7 0 16 11 20 25 3 14 12 29 18
33 7 4 22 29 35 56 15 33 26 45 33 38 6 -6 4 -20 -7 -42z m-2181 4 c24 -9 19
-26 -5 -19 -13 4 -27 1 -39 -10 -12 -10 -30 -15 -52 -13 -33 4 -33 4 15 17 26
7 47 17 47 22 0 10 12 11 34 3z m2080 -9 c3 -8 1 -15 -4 -15 -6 0 -10 7 -10
15 0 8 2 15 4 15 2 0 6 -7 10 -15z m-7 -87 c-3 -7 -5 -2 -5 12 0 14 2 19 5 13
2 -7 2 -19 0 -25z m-10437 1 c0 -6 -4 -7 -10 -4 -5 3 -10 11 -10 16 0 6 5 7
10 4 6 -3 10 -11 10 -16z m3242 -25 c230 -83 465 -238 659 -434 60 -60 152
-190 143 -199 -3 -3 -11 1 -17 10 -7 8 -35 28 -64 43 -42 23 -182 122 -268
191 -10 8 -29 15 -42 15 -12 0 -27 8 -32 18 -6 9 -11 14 -11 10 0 -7 -59 34
-113 78 -9 8 -22 14 -27 14 -5 0 -26 16 -46 35 -33 32 -109 75 -133 75 -5 0
-11 3 -13 8 -1 4 -25 25 -52 46 -43 35 -86 89 -86 109 0 13 27 8 102 -19z
m7856 -61 c134 -343 248 -792 313 -1233 25 -173 30 -212 44 -348 8 -79 17
-151 20 -160 3 -10 45 -48 92 -87 48 -38 121 -99 163 -135 42 -36 98 -83 125
-105 110 -90 116 -97 104 -111 -6 -7 -35 -20 -64 -29 -30 -8 -57 -20 -60 -25
-3 -6 -15 -10 -26 -10 -10 0 -19 -4 -19 -8 0 -5 -24 -19 -52 -32 -29 -13 -67
-34 -84 -46 -52 -38 -185 -114 -199 -114 -7 0 -18 15 -25 33 -19 46 -85 132
-149 194 -73 69 -260 198 -271 187 -5 -5 -10 -50 -12 -99 -2 -57 -7 -89 -14
-88 -7 1 -9 -26 -6 -83 3 -56 1 -89 -7 -97 -6 -6 -11 -30 -11 -54 0 -24 -4
-43 -9 -43 -5 0 -11 -24 -14 -52 -5 -50 -22 -123 -47 -213 -6 -22 -14 -51 -16
-65 -6 -25 -19 -60 -35 -92 -5 -10 -9 -25 -9 -33 0 -8 -4 -23 -9 -33 -6 -9
-22 -51 -36 -92 -31 -86 -38 -104 -134 -300 -102 -211 -167 -322 -185 -317 -5
2 -24 -24 -41 -57 -18 -34 -61 -102 -97 -151 -36 -50 -73 -105 -82 -122 -9
-18 -27 -43 -41 -57 -13 -13 -53 -69 -88 -123 -36 -54 -73 -107 -84 -118 -10
-11 -50 -63 -88 -115 -38 -52 -75 -99 -81 -105 -7 -5 -28 -32 -49 -60 -20 -27
-62 -79 -93 -114 -32 -35 -82 -91 -112 -126 -30 -34 -71 -80 -91 -103 -85 -99
-355 -389 -484 -520 -247 -253 -452 -421 -767 -629 -119 -79 -220 -143 -224
-143 -3 0 -18 -8 -32 -19 -61 -43 -465 -247 -607 -306 -103 -43 -469 -172
-570 -201 -476 -135 -705 -174 -1305 -221 l-95 -8 2 -360 c2 -358 11 -535 35
-650 6 -33 11 -80 10 -105 -1 -34 1 -41 9 -30 8 12 9 10 4 -7 -8 -29 8 -57 67
-119 27 -28 56 -61 65 -73 14 -21 14 -23 -6 -28 -15 -4 -22 -16 -27 -52 -7
-50 -39 -108 -95 -170 -9 -10 -25 -32 -35 -50 -10 -17 -22 -31 -26 -31 -4 0
-8 -7 -8 -15 0 -8 -4 -15 -9 -15 -5 0 -17 -7 -25 -16 -14 -14 -15 -12 -10 14
4 17 1 32 -5 36 -6 4 -11 17 -11 29 0 17 2 19 10 7 5 -8 12 -12 15 -8 3 3 0
12 -7 19 -25 27 -68 88 -68 97 0 5 -7 15 -15 22 -10 9 -15 9 -15 1 0 -6 -5
-11 -11 -11 -6 0 -9 6 -6 14 3 8 -5 22 -20 33 -14 10 -31 24 -38 30 -8 7 -18
13 -24 13 -15 0 -14 20 2 20 6 0 0 8 -15 18 -16 9 -28 20 -28 24 0 4 -8 4 -17
1 -14 -6 -15 -4 -5 8 53 63 87 109 109 148 15 25 32 53 39 61 26 31 44 328 44
738 1 242 -3 398 -9 406 -6 7 -46 12 -103 14 -132 3 -353 25 -523 52 -33 5
-89 14 -125 20 -74 11 -156 27 -215 40 -22 5 -62 14 -90 19 -91 20 -348 93
-450 128 -55 19 -121 41 -147 49 -119 36 -362 141 -583 250 -183 90 -200 100
-375 206 -246 148 -275 168 -645 446 -55 42 -134 105 -175 141 -175 154 -446
440 -569 601 -19 25 -73 90 -120 145 -109 127 -161 191 -191 235 -13 19 -37
51 -54 71 -75 88 -105 127 -159 206 -31 47 -54 90 -50 96 4 6 0 8 -10 4 -17
-7 -27 11 -27 51 0 20 -3 23 -9 13 -8 -12 -12 -9 -23 15 -7 16 -15 31 -18 34
-3 3 -16 22 -30 42 -14 21 -28 38 -32 38 -5 0 -8 5 -8 12 0 6 -11 26 -25 44
-14 18 -25 37 -25 43 0 6 -4 11 -10 11 -5 0 -10 8 -10 18 -1 9 -14 33 -30 52
-17 19 -30 38 -30 43 0 5 -7 15 -16 24 -8 9 -13 21 -10 28 3 8 -1 16 -8 18 -7
3 -16 22 -19 41 -3 20 -19 53 -35 74 -38 47 -72 108 -73 130 -1 9 -4 4 -8 -13
l-7 -30 -23 50 c-12 28 -31 69 -42 93 -10 23 -29 63 -40 90 -12 26 -30 64 -40
84 -10 21 -14 40 -9 43 4 3 11 -1 13 -7 3 -8 6 -6 6 5 1 10 -6 17 -17 17 -19
0 -42 48 -42 88 0 11 -4 24 -10 27 -5 3 -10 17 -10 30 0 13 -5 27 -10 30 -6 3
-9 25 -9 48 3 62 -69 325 -84 310 -4 -3 -7 6 -7 21 0 16 -4 25 -10 21 -6 -4
-10 10 -10 34 0 22 -5 43 -10 46 -6 4 -7 23 -4 46 5 30 3 43 -9 52 -12 9 -18
55 -28 215 -15 236 1 222 -148 131 -145 -89 -217 -153 -283 -249 -62 -89 -82
-105 -93 -71 -11 36 -159 175 -239 224 -25 16 -42 18 -105 13 -153 -12 -169
-4 -101 52 25 20 92 78 150 128 80 69 229 189 299 241 2 1 10 78 17 170 25
317 78 657 134 858 22 78 69 258 77 293 14 62 71 207 80 207 6 0 28 -22 48
-48 l37 -49 -35 -121 c-72 -250 -111 -417 -157 -692 -43 -247 -72 -634 -51
-664 11 -17 26 -14 272 44 110 26 108 26 103 -55 -2 -38 -1 -70 4 -70 4 0 13
42 20 93 24 187 95 515 130 607 21 54 25 -16 13 -247 -7 -129 -11 -237 -8
-240 5 -4 487 127 612 166 17 5 104 26 195 46 91 20 183 40 205 45 149 35 389
81 740 141 28 5 109 15 180 24 72 8 164 19 205 24 41 5 77 8 79 5 2 -2 -18
-24 -45 -48 -48 -45 -118 -76 -168 -76 -62 0 -586 -113 -766 -164 -25 -8 -81
-24 -125 -36 -44 -13 -105 -31 -135 -40 -30 -9 -86 -27 -125 -39 -120 -36
-307 -98 -390 -129 -44 -16 -107 -40 -140 -51 -33 -12 -82 -32 -110 -43 -27
-12 -63 -26 -80 -33 -16 -7 -59 -25 -94 -41 l-64 -28 6 -170 c12 -345 98 -722
248 -1086 64 -158 184 -413 216 -461 l26 -40 96 94 c53 51 124 115 158 142 73
58 272 185 290 185 7 0 19 -15 27 -32 l14 -33 -112 -110 c-138 -135 -255 -262
-269 -292 -6 -13 -14 -23 -19 -23 -4 0 -8 -7 -8 -15 0 -8 4 -15 9 -15 5 0 14
7 21 15 7 8 18 15 25 15 7 0 16 11 19 24 3 13 22 33 41 45 19 11 35 27 35 36
0 8 8 15 18 15 11 0 27 8 36 19 9 10 45 31 79 45 34 15 70 31 79 37 10 5 55 9
101 9 96 0 127 -13 207 -87 29 -26 59 -52 68 -57 22 -13 41 -38 42 -55 0 -8 7
-22 16 -32 24 -27 25 -185 1 -222 -9 -15 -26 -27 -36 -27 -11 0 -21 -6 -24
-12 -3 -10 -9 -10 -26 0 -11 6 -28 12 -36 12 -8 0 -23 4 -33 9 -41 21 -74 32
-184 65 -124 37 -181 48 -346 67 -75 8 -102 15 -102 25 0 21 -37 17 -60 -6
-35 -35 -34 -38 102 -243 157 -235 389 -527 588 -740 135 -145 303 -312 385
-383 44 -38 82 -71 85 -74 94 -98 558 -435 800 -580 339 -203 651 -359 920
-460 47 -17 103 -39 125 -47 65 -25 244 -82 325 -104 41 -11 100 -27 130 -35
368 -101 563 -135 970 -169 440 -36 857 -1 1365 115 285 65 339 81 565 156
267 90 614 234 840 348 25 13 110 56 190 96 265 134 609 380 905 644 161 143
525 515 657 671 14 17 49 57 78 90 199 230 620 826 620 878 0 42 -327 255
-447 292 -33 9 -28 25 22 73 l44 42 68 -44 c131 -85 193 -132 268 -204 41 -40
75 -77 75 -83 0 -18 25 -9 37 14 139 271 209 417 253 527 138 353 197 573 235
883 16 131 19 226 7 242 -7 10 -79 46 -154 79 -21 9 -53 22 -70 30 -18 8 -100
41 -183 74 -133 54 -210 83 -405 154 -30 11 -64 23 -75 28 -53 20 -440 143
-535 170 -214 60 -258 74 -276 85 -24 15 -71 101 -61 111 4 4 62 -5 130 -20
67 -15 154 -34 192 -42 103 -22 558 -138 705 -180 30 -8 118 -35 195 -59 77
-24 176 -53 220 -65 44 -12 126 -37 182 -56 56 -19 109 -34 117 -34 17 0 17
19 -5 314 -5 72 -9 168 -9 215 1 77 2 84 14 61 19 -35 92 -338 105 -435 6 -44
16 -112 21 -152 6 -39 10 -96 10 -127 0 -30 3 -61 6 -70 13 -33 24 -2 24 65 0
44 4 69 11 69 6 0 57 -11 113 -24 55 -13 124 -26 151 -28 l50 -3 -2 145 c-3
255 -63 666 -142 970 -59 227 -100 368 -157 537 -19 56 -34 115 -34 131 0 30
46 101 66 102 6 0 25 -35 42 -77z m-11071 27 c8 -12 9 -21 3 -25 -6 -3 -10 1
-10 9 0 9 -4 16 -10 16 -5 0 -10 5 -10 10 0 16 14 11 27 -10z m61 -15 c34 -39
26 -54 -8 -17 -16 18 -30 35 -30 38 0 11 19 1 38 -21z m8059 19 c-3 -3 -12 -4
-19 -1 -8 3 -5 6 6 6 11 1 17 -2 13 -5z m-154 -21 c-7 -2 -19 -2 -25 0 -7 3
-2 5 12 5 14 0 19 -2 13 -5z m2357 -13 c0 -5 -4 -10 -10 -10 -5 0 -10 5 -10
10 0 6 5 10 10 10 6 0 10 -4 10 -10z m-150 -125 c0 -8 -7 -15 -15 -15 -8 0
-15 7 -15 15 0 8 7 15 15 15 8 0 15 -7 15 -15z m-10 -56 c0 -5 -4 -9 -10 -9
-5 0 -10 7 -10 16 0 8 5 12 10 9 6 -3 10 -10 10 -16z m68 -6 c-18 -16 -46 -40
-62 -55 -27 -26 -46 -35 -46 -23 0 8 80 78 104 92 37 21 39 14 4 -14z m-258
-2 c0 -10 -50 -25 -58 -16 -3 3 2 5 11 5 10 0 17 5 17 10 0 6 7 10 15 10 8 0
15 -4 15 -9z m-7590 -11 c12 -8 11 -10 -7 -10 -12 0 -25 5 -28 10 -8 13 15 13
35 0z m105 -20 c15 -7 10 -9 -23 -9 -26 -1 -41 3 -37 9 7 12 32 12 60 0z
m3886 -8 c20 -17 21 -21 8 -38 -51 -71 -349 -317 -365 -301 -16 16 202 272
279 328 47 34 48 34 78 11z m-3803 -19 c-10 -2 -26 -2 -35 0 -10 3 -2 5 17 5
19 0 27 -2 18 -5z m7334 -5 c-9 -9 -15 -9 -24 0 -9 9 -7 12 12 12 19 0 21 -3
12 -12z m-67 -7 c3 -5 1 -12 -5 -16 -5 -3 -10 1 -10 9 0 18 6 21 15 7z m265
-11 c26 -16 4 -21 -26 -5 -23 12 -25 15 -9 15 11 0 27 -4 35 -10z m-140 -12
c0 -4 -11 -8 -25 -8 -14 0 -28 0 -32 -1 -4 0 -9 4 -11 9 -2 6 13 10 32 9 20
-1 36 -5 36 -9z m-7215 -18 c11 -4 63 -29 116 -54 53 -25 101 -46 106 -46 17
0 93 -40 93 -50 0 -11 -57 7 -66 21 -3 5 -14 9 -25 9 -10 0 -19 5 -19 10 0 6
-9 10 -19 10 -11 0 -23 5 -26 10 -3 6 -15 10 -26 10 -10 0 -19 5 -19 10 0 6
-9 10 -20 10 -11 0 -20 4 -20 9 0 5 -15 13 -32 17 -41 9 -98 35 -98 46 0 7 15
4 55 -12z m7268 13 c-7 -2 -13 -9 -13 -14 0 -12 37 -12 45 1 8 12 25 13 25 2
0 -15 -127 -62 -168 -62 -23 0 -2 20 44 41 24 12 44 25 44 30 0 5 8 9 18 8 10
0 12 -3 5 -6z m-141 -47 c-2 -10 2 -24 9 -32 9 -12 6 -14 -22 -14 -30 1 -32 2
-17 14 12 9 14 16 7 23 -13 13 -2 36 14 30 7 -2 11 -12 9 -21z m-9578 -12 c10
-27 7 -36 -9 -20 -8 8 -15 19 -15 25 0 17 17 13 24 -5z m46 -75 c0 -7 -6 -4
-15 7 -19 25 -19 40 0 20 8 -8 15 -20 15 -27z m9425 31 c-3 -5 -17 -10 -30
-10 -13 0 -27 5 -30 10 -4 6 8 10 30 10 22 0 34 -4 30 -10z m-9387 -95 c-3 -3
-9 2 -12 12 -6 14 -5 15 5 6 7 -7 10 -15 7 -18z m6377 5 c-3 -5 -12 -10 -18
-10 -7 0 -6 4 3 10 19 12 23 12 15 0z m-3628 -6 c-3 -3 -12 -4 -19 -1 -8 3 -5
6 6 6 11 1 17 -2 13 -5z m1153 -64 c40 -21 160 -193 146 -208 -3 -3 -6 0 -6 6
0 7 -5 12 -10 12 -6 0 -23 8 -38 18 -129 88 -168 109 -190 101 -33 -13 -27 9
14 47 37 36 53 40 84 24z m-243 -52 c-3 -8 -6 -5 -6 6 -1 11 2 17 5 13 3 -3 4
-12 1 -19z m2565 -20 c-6 -6 -15 -8 -19 -4 -4 4 -1 11 7 16 19 12 27 3 12 -12z
m-42 -33 c0 -8 -7 -15 -15 -15 -9 0 -18 -7 -21 -15 -7 -17 -34 -21 -34 -5 0 6
4 10 8 10 5 0 19 9 32 20 28 24 30 24 30 5z m1451 -156 c165 -33 328 -103 463
-200 155 -111 341 -332 384 -457 14 -42 1 -33 -40 26 -62 90 -76 90 -33 0 70
-150 73 -308 8 -407 -35 -54 -117 -93 -255 -122 -90 -18 -125 -20 -268 -16
-100 4 -178 11 -199 19 -27 10 -35 10 -38 1 -3 -7 -10 -13 -16 -13 -8 0 -7 4
1 12 18 18 15 27 -14 38 -21 8 -29 7 -39 -6 -11 -16 -14 -16 -43 2 -18 10 -32
24 -32 31 0 7 -5 13 -11 13 -6 0 -9 7 -5 15 4 10 -1 15 -14 15 -12 0 -20 -7
-20 -17 0 -10 -4 -14 -8 -8 -11 15 -99 75 -110 75 -5 0 -37 28 -70 63 -34 34
-89 89 -122 122 -33 33 -60 65 -60 72 0 7 -6 16 -14 20 -8 4 -16 17 -18 28 -2
11 -10 19 -19 17 -15 -2 -59 67 -59 93 0 7 -7 19 -16 26 -13 11 -15 28 -12 95
5 104 37 164 102 194 143 65 223 80 466 86 118 3 221 8 229 10 20 7 -12 27
-69 43 -25 7 -56 17 -70 21 -86 26 -138 38 -259 56 -113 17 -315 18 -360 3
-39 -14 -55 -4 -17 11 28 10 195 46 251 53 99 13 309 6 406 -14z m1319 -19 c0
-5 -16 -10 -35 -10 -19 0 -35 5 -35 10 0 6 16 10 35 10 19 0 35 -4 35 -10z
m640 0 c0 -5 -6 -10 -14 -10 -8 0 -18 5 -21 10 -3 6 3 10 14 10 12 0 21 -4 21
-10z m-736 -15 c-21 -16 -54 -20 -54 -6 0 5 12 12 28 14 15 2 31 5 36 6 6 0 1
-6 -10 -14z m662 -5 c26 0 74 -27 74 -41 0 -14 -28 -11 -63 7 -33 17 -47 32
-46 49 0 6 3 4 6 -2 2 -7 16 -13 29 -13z m247 6 c5 -1 -18 -10 -50 -21 -86
-29 -151 -17 -112 22 8 8 125 8 162 -1z m-623 -11 c0 -12 -14 -15 -70 -15
-109 0 -89 25 23 29 36 1 47 -3 47 -14z m300 -5 c0 -5 9 -10 21 -10 27 0 19
-24 -9 -28 -15 -2 -22 2 -22 12 0 12 -11 16 -42 17 -77 1 -90 18 -15 18 38 1
67 -3 67 -9z m-154 -15 c4 -10 20 -15 52 -15 25 0 42 -3 39 -6 -12 -12 -294
-17 -313 -5 -16 8 -10 10 29 11 26 0 47 4 47 9 0 9 31 14 113 19 17 1 30 -4
33 -13z m242 -42 c-10 -2 -26 -2 -35 0 -10 3 -2 5 17 5 19 0 27 -2 18 -5z
m-533 -13 c4 -6 -8 -10 -30 -10 -22 0 -34 4 -30 10 3 6 17 10 30 10 13 0 27
-4 30 -10z m294 -2 c14 -9 34 -9 78 -1 32 6 65 7 73 3 11 -7 9 -10 -10 -14
-36 -7 -363 -15 -395 -9 -47 10 -6 22 52 16 36 -4 53 -2 53 6 0 15 124 15 149
-1z m-4546 -110 c27 -21 61 -41 75 -44 15 -4 34 -12 42 -19 31 -26 129 -74
132 -64 2 5 21 12 42 15 21 2 44 8 50 11 6 4 31 10 56 14 25 4 77 14 115 22
115 24 280 37 470 37 192 0 317 -8 310 -20 -5 -8 94 -30 136 -30 15 0 31 -4
34 -10 3 -5 15 -10 26 -10 10 0 19 -4 19 -9 0 -5 15 -12 33 -15 32 -6 105 -39
152 -69 101 -63 214 -268 241 -436 16 -99 13 -287 -7 -396 -23 -123 -136 -332
-226 -416 -43 -40 -168 -139 -176 -139 -3 0 -31 -15 -64 -33 -115 -65 -246
-109 -453 -153 -105 -22 -340 -23 -445 -1 -157 33 -294 81 -415 144 -3 2 -41
-27 -85 -63 -44 -37 -97 -77 -117 -90 -62 -40 -78 -28 -30 22 94 101 149 177
195 270 46 91 61 163 55 265 -6 120 -48 208 -136 290 -36 33 -86 69 -113 81
-80 37 -52 48 130 49 162 2 492 14 454 17 -34 3 -53 13 -53 27 0 8 -14 15 -32
18 -31 4 -30 4 7 6 42 1 74 15 63 27 -4 3 9 17 28 30 26 18 50 24 92 25 l57 2
-55 7 c-30 3 -127 2 -215 -2 -88 -5 -194 -7 -235 -6 l-75 3 -3 37 c-4 49 -76
129 -163 181 -75 44 -95 45 -160 12 -182 -91 -320 -252 -306 -358 11 -81 49
-111 217 -172 128 -47 174 -71 224 -121 50 -50 73 -98 85 -170 25 -161 -52
-317 -255 -516 -86 -84 -123 -116 -386 -336 -68 -57 -133 -112 -144 -123 -12
-10 -28 -19 -35 -19 -12 0 -231 210 -419 403 -47 48 -90 87 -95 87 -5 0 -18
-9 -30 -20 -23 -22 -139 -72 -230 -100 -172 -52 -346 -69 -477 -45 -83 14
-101 20 -176 52 -45 20 -132 108 -132 135 0 9 -3 9 -10 -2 -11 -17 -12 -15
-27 30 -66 198 -25 536 95 789 114 239 316 453 559 590 141 79 292 127 277 86
-4 -8 -14 -15 -23 -15 -9 0 -25 -7 -35 -15 -11 -8 -16 -15 -10 -15 18 0 82 26
98 39 9 7 24 11 35 8 10 -2 59 1 107 9 109 16 374 18 461 3 46 -8 66 -17 74
-31 8 -15 14 -17 22 -9 15 15 37 14 37 -2 0 -30 22 -36 56 -16 84 47 71 14
-39 -100 -145 -150 -218 -258 -255 -381 -44 -143 -37 -273 23 -399 20 -42 43
-83 51 -92 13 -15 12 -17 -17 -23 -17 -3 -89 -6 -160 -6 l-129 0 7 -47 c3 -27
10 -53 14 -59 21 -26 117 -37 269 -30 120 6 150 4 149 -6 0 -7 -34 -40 -74
-73 -50 -41 -74 -67 -74 -82 -1 -28 107 -145 166 -180 l43 -25 48 28 c114 66
251 194 290 271 44 85 41 170 -8 221 -38 40 -63 53 -195 97 -61 20 -129 47
-152 61 -146 85 -163 286 -42 489 92 153 203 262 434 428 143 103 140 101 200
154 37 34 43 44 31 49 -30 12 -16 23 21 17 22 -4 59 -23 86 -45z m-4065 35
c-10 -2 -28 -2 -40 0 -13 2 -5 4 17 4 22 1 32 -1 23 -4z m9551 -70 l26 -22
-23 -16 c-12 -9 -30 -31 -39 -48 l-17 -32 -9 33 c-6 17 -16 32 -23 32 -24 0
-15 34 18 69 23 24 33 30 36 20 3 -8 16 -24 31 -36z m-7534 -106 c16 -13 14
-15 -24 -21 -23 -3 -73 -21 -109 -38 -59 -28 -64 -32 -40 -35 37 -6 52 -32 78
-130 6 -26 4 -35 -11 -49 -11 -9 -19 -23 -19 -29 0 -7 -11 -16 -25 -19 -14 -4
-25 -11 -25 -16 0 -6 -7 -10 -16 -10 -8 0 -30 -11 -48 -25 -18 -14 -37 -25
-41 -25 -10 0 -308 -198 -380 -252 -27 -21 -55 -38 -61 -38 -17 0 -59 63 -55
83 2 15 -2 17 -18 12 -19 -6 -20 -4 -11 21 25 64 -21 31 -83 -61 -22 -33 -43
-62 -47 -65 -3 -3 -14 -21 -23 -40 -10 -19 -26 -48 -36 -65 -10 -16 -28 -58
-42 -92 -13 -35 -27 -63 -31 -63 -16 0 -7 99 18 188 49 182 129 316 274 462
178 180 351 267 620 309 84 13 134 12 155 -2z m-1715 -546 c0 -5 11 -23 25
-39 l25 -30 -25 -38 c-14 -20 -25 -43 -25 -50 0 -23 -20 -16 -30 11 -5 13 -19
34 -31 46 l-21 21 25 26 c13 15 27 35 30 45 7 18 27 24 27 8z m8568 -163 c6
-8 7 -19 2 -28 -7 -11 -14 -12 -35 -2 -31 14 -43 41 -24 52 14 9 39 -1 57 -22z
m-8871 -278 c9 -16 20 -30 23 -30 3 0 16 -9 30 -20 l25 -19 -28 -10 c-19 -7
-35 -26 -48 -56 -21 -47 -36 -57 -45 -27 -13 40 -29 63 -56 80 l-29 18 26 14
c14 8 35 29 46 47 25 41 33 41 56 3z m9169 -350 c32 -89 52 -111 122 -139 34
-14 62 -29 62 -35 0 -6 -27 -22 -60 -34 -67 -26 -89 -51 -125 -139 -12 -32
-28 -59 -33 -61 -6 -2 -14 14 -18 35 -9 53 -38 107 -71 133 -34 26 -88 50
-115 50 -31 0 -11 17 53 46 73 33 92 56 121 145 12 38 26 68 31 66 5 -1 20
-32 33 -67z m-9479 -97 c13 -16 76 -81 140 -146 l117 -117 -144 -140 c-79 -77
-146 -140 -147 -140 -2 0 -67 63 -144 140 l-140 141 138 144 c75 80 142 145
147 145 6 0 21 -12 33 -27z m7603 -22 c154 -21 328 -40 430 -46 98 -6 218 -29
283 -54 40 -15 123 -96 152 -148 32 -58 55 -136 55 -186 0 -47 -28 -147 -41
-147 -5 0 -9 -7 -9 -15 0 -20 -43 -59 -92 -85 -21 -11 -38 -24 -38 -29 0 -5
-16 -15 -35 -21 -19 -6 -33 -15 -30 -19 5 -10 -53 -36 -113 -51 -27 -7 -54 -8
-76 -2 -20 6 -39 6 -50 0 -9 -5 -24 -7 -33 -4 -9 4 -30 -2 -48 -13 -38 -22
-74 -18 -174 23 -39 15 -73 23 -87 20 -20 -5 -24 -2 -24 15 0 24 -10 27 -28 9
-6 -6 -15 -8 -19 -4 -4 4 -1 11 6 15 10 7 4 13 -22 26 -23 11 -34 22 -30 31 3
8 2 21 -1 30 -5 12 -9 14 -20 5 -20 -17 -40 -5 -65 40 -13 22 -34 51 -47 64
-13 13 -24 35 -24 48 0 14 -7 28 -16 31 -9 4 -14 13 -10 21 3 8 1 15 -4 15 -4
0 -12 15 -15 33 -4 17 -11 37 -15 42 -11 13 -15 312 -5 349 l8 28 81 -5 c44
-3 115 -10 156 -16z m-6146 -277 c10 -253 9 -257 -64 -310 -25 -18 -49 -33
-53 -33 -4 -1 -27 -10 -50 -22 -67 -33 -167 -59 -229 -59 -53 0 -62 4 -110 43
-52 42 -53 44 -56 103 -2 51 2 68 31 125 47 89 89 142 177 222 115 105 225
159 310 154 l35 -2 9 -221z m-710 53 c-4 -7 -13 -19 -21 -28 -29 -35 -103
-278 -103 -341 0 -56 -22 -151 -31 -136 -12 18 -11 122 0 167 5 20 15 63 22
96 19 93 110 272 132 258 4 -2 4 -10 1 -16z m3611 -502 c44 -14 94 -33 112
-41 17 -8 35 -14 41 -14 31 0 228 -97 282 -139 68 -53 78 -79 64 -181 -14
-103 -41 -167 -69 -161 -11 2 -45 5 -75 6 -57 3 -88 10 -225 45 -108 28 -147
39 -235 68 -41 13 -158 45 -260 71 -137 35 -186 51 -188 63 -5 26 212 238 288
282 60 34 70 37 125 33 33 -3 96 -17 140 -32z m-1038 -42 c59 -61 173 -218
173 -239 0 -12 -44 -36 -90 -49 -55 -15 -177 -61 -265 -100 -16 -7 -41 -18
-55 -23 -122 -50 -235 -105 -284 -138 -32 -21 -71 -47 -85 -56 -14 -10 -32
-21 -38 -24 -7 -3 -13 -17 -13 -30 0 -13 -4 -24 -9 -24 -16 0 -97 103 -125
157 -36 73 -37 168 -1 221 l25 37 1 -55 c1 -30 0 -73 -1 -94 -2 -45 27 -116
47 -116 15 0 17 22 3 36 -13 13 -20 140 -9 174 4 14 10 36 13 50 7 32 45 73
126 136 88 69 145 98 291 149 89 32 140 44 182 44 58 1 59 1 114 -56z m4413
-33 c0 -5 -7 -10 -16 -10 -8 0 -12 5 -9 10 3 6 10 10 16 10 5 0 9 -4 9 -10z
m27 -26 c-3 -3 -12 -4 -19 -1 -8 3 -5 6 6 6 11 1 17 -2 13 -5z m1352 -104
c109 -32 281 -145 281 -184 0 -9 9 -16 20 -16 27 0 25 -6 -7 -35 -26 -22 -34
-23 -123 -19 -205 9 -415 -29 -607 -110 -34 -14 -65 -26 -68 -26 -14 0 -35 73
-35 118 0 106 48 173 179 253 83 50 231 58 360 19z m-3794 -40 c3 -5 -1 -10
-10 -10 -9 0 -13 5 -10 10 3 6 8 10 10 10 2 0 7 -4 10 -10z m4448 -203 c27
-34 44 -63 39 -65 -11 -3 -96 44 -111 62 -14 17 -4 66 13 66 6 -1 33 -29 59
-63z m-10150 -47 c30 -56 31 -60 17 -60 -10 0 -34 -10 -158 -66 -78 -35 -88
-32 -52 18 49 68 134 156 151 157 9 1 26 -20 42 -49z m10148 -52 c105 -39 158
-91 246 -240 88 -148 165 -323 134 -304 -6 4 -62 82 -125 174 -144 211 -203
283 -246 303 -54 25 -159 44 -172 31 -22 -22 83 -288 156 -395 14 -21 26 -42
26 -47 0 -4 3 -10 8 -12 4 -1 48 -57 97 -123 49 -66 94 -125 100 -132 7 -6 23
-38 35 -70 13 -32 32 -73 42 -90 10 -18 15 -33 13 -33 -3 0 -58 38 -123 84
-177 127 -250 157 -338 140 -30 -5 -55 -23 -109 -77 l-70 -70 -89 -14 c-94
-14 -134 -24 -203 -55 -24 -10 -48 -18 -54 -18 -18 0 -68 -39 -160 -125 -95
-89 -178 -155 -224 -179 -33 -18 -95 -21 -95 -6 0 5 40 51 88 102 48 51 139
156 202 233 63 77 117 142 120 145 43 38 315 400 450 600 41 61 95 136 120
166 51 62 42 62 171 12z m-417 -17 c3 -4 -4 -17 -15 -27 -11 -10 -41 -48 -67
-84 -26 -36 -52 -72 -59 -80 -6 -8 -78 -98 -158 -200 -143 -181 -428 -509
-472 -543 -21 -17 -23 -17 -40 1 -73 75 -145 200 -169 292 -26 102 -17 171 34
252 129 202 372 335 702 383 101 15 237 19 244 6z m-9567 -199 c56 -86 126
-189 155 -229 29 -40 82 -114 118 -165 36 -51 128 -172 205 -268 140 -174 175
-222 175 -237 0 -4 -14 -23 -31 -41 -22 -23 -35 -30 -46 -24 -8 5 -54 47 -101
93 -48 47 -100 95 -116 107 -31 24 -84 29 -145 12 -126 -33 -204 -50 -210 -45
-5 2 -16 26 -26 52 -75 199 -140 263 -250 246 -89 -14 -161 -58 -320 -194
-133 -113 -212 -206 -247 -292 -45 -108 -51 -107 -44 11 10 157 49 296 139
502 85 197 207 400 296 493 54 58 205 119 337 136 5 0 56 -70 111 -157z m258
133 c169 -16 418 -106 544 -198 l44 -33 -2 -67 c-1 -38 -11 -94 -21 -125 -11
-31 -20 -63 -20 -71 0 -8 -18 -51 -40 -97 -22 -46 -40 -91 -40 -99 0 -36 -42
-6 -122 86 -46 53 -101 120 -123 149 -22 29 -70 89 -106 134 -36 44 -80 104
-99 131 -19 28 -36 52 -39 55 -13 11 -81 129 -81 140 0 6 8 9 18 6 9 -2 49 -8
87 -11z m5133 -120 c-43 -38 -119 -85 -139 -85 -12 0 41 47 117 103 70 52 86
40 22 -18z m-1140 -35 c23 -11 46 -20 52 -20 5 0 18 -4 28 -9 28 -15 173 -81
177 -81 2 0 38 -23 81 -51 95 -63 202 -170 258 -258 54 -84 106 -216 113 -285
11 -107 -56 -244 -134 -274 -113 -44 -188 -55 -373 -56 -218 -1 -344 20 -393
64 -91 80 -123 221 -121 540 0 113 6 225 11 250 l10 45 3 -60 c1 -33 6 -71 10
-85 l8 -25 1 27 c1 34 11 59 21 53 11 -7 32 107 21 118 -5 5 6 36 28 74 l36
65 61 -6 c33 -4 79 -15 102 -26z m-582 -4 c18 -29 36 -94 65 -236 12 -58 25
-124 30 -146 30 -150 29 -493 -2 -531 -8 -9 -12 -26 -11 -39 3 -20 -5 -25 -65
-44 -88 -28 -259 -38 -343 -20 -53 11 -60 15 -60 37 0 13 -8 36 -18 51 -102
155 -123 219 -124 380 0 110 3 137 25 202 57 172 104 220 327 332 93 47 151
51 176 14z m331 -163 c-3 -10 -5 -4 -5 12 0 17 2 24 5 18 2 -7 2 -21 0 -30z
m-1437 -365 c31 -145 105 -365 162 -482 28 -60 40 -114 14 -68 l-13 24 -13
-33 -14 -32 -28 33 c-66 79 -121 256 -138 440 -8 94 -4 218 7 206 3 -2 13 -42
23 -88z m4989 -246 c-7 -15 -14 -28 -15 -30 -4 -6 -44 37 -44 46 0 4 7 18 16
31 l16 22 20 -21 c18 -19 19 -25 7 -48z m2466 -43 c69 -63 158 -212 332 -554
69 -134 77 -156 76 -205 0 -41 -8 -71 -31 -117 -18 -35 -35 -63 -39 -63 -5 1
-21 28 -38 62 -16 34 -53 100 -80 147 -28 47 -66 117 -85 154 -21 43 -38 66
-47 63 -7 -3 -17 4 -23 14 -15 28 -30 25 -31 -7 0 -25 -1 -26 -9 -8 -5 11 -9
35 -9 53 -1 36 -7 39 -33 15 -11 -9 -18 -11 -18 -5 0 7 -7 12 -15 12 -9 0 -20
11 -25 25 -13 35 -54 53 -77 34 -15 -12 -16 -12 -8 1 5 8 10 35 11 60 3 44 12
83 39 165 8 22 19 75 26 118 8 53 16 77 26 77 7 0 33 -18 58 -41z m-10329
-105 c22 -128 39 -190 55 -208 5 -6 9 -25 9 -42 0 -18 5 -36 10 -39 16 -10 12
-19 -12 -30 -13 -6 -29 -22 -36 -37 -12 -27 -32 -38 -32 -19 0 18 -31 21 -37
3 -10 -27 -50 -64 -58 -52 -3 5 -11 10 -18 10 -8 0 -8 -3 1 -12 14 -14 -2 -48
-23 -48 -8 0 -15 -8 -15 -17 0 -27 -87 -132 -114 -139 -13 -3 -26 -14 -29 -25
-3 -11 -14 -19 -26 -19 -12 0 -21 -6 -21 -14 0 -7 -7 -19 -15 -26 -8 -7 -15
-18 -15 -26 0 -26 -42 -126 -50 -117 -22 23 -80 154 -80 180 0 40 30 111 119
278 41 77 95 181 119 230 25 50 65 119 90 155 48 68 131 151 146 147 5 -2 19
-61 32 -133z m2295 47 c8 -17 24 -35 36 -42 28 -15 29 -26 2 -34 -11 -4 -27
-22 -36 -41 -21 -43 -30 -43 -48 1 -8 19 -25 40 -37 46 l-22 12 26 21 c14 12
29 31 33 44 9 31 31 28 46 -7z m-1633 -143 c160 -132 190 -155 288 -220 52
-34 92 -64 90 -66 -5 -5 -67 14 -116 36 -19 8 -98 57 -175 107 -206 135 -202
133 -221 113 -15 -14 -14 -18 2 -44 10 -16 21 -31 25 -34 16 -13 20 -56 8 -94
-12 -36 -72 -142 -88 -156 -3 -3 -19 -23 -36 -45 -36 -50 -114 -127 -180 -180
-28 -21 -52 -42 -55 -45 -3 -3 -34 -30 -70 -59 -36 -29 -83 -70 -105 -90 -61
-56 -69 -60 -61 -25 12 48 87 140 252 314 86 91 162 178 169 193 14 34 -6 135
-45 231 -18 43 -22 61 -14 74 9 14 176 68 221 71 6 1 56 -36 111 -81z m9127
57 c122 -23 125 -24 125 -44 0 -10 -9 -47 -20 -82 -12 -35 -28 -97 -36 -137
-15 -71 -14 -73 7 -105 12 -18 48 -59 79 -92 157 -163 303 -350 316 -401 7
-27 3 -25 -52 27 -32 30 -86 75 -119 100 -33 24 -80 63 -104 87 -24 23 -45 42
-47 42 -2 0 -32 27 -66 60 -34 33 -65 60 -70 60 -4 0 -8 7 -8 15 0 7 -6 18
-13 22 -15 10 -58 70 -74 103 -33 68 -42 200 -16 221 7 6 13 18 13 26 0 23
-43 9 -108 -35 -173 -116 -193 -127 -204 -110 -9 15 41 65 180 181 54 45 102
77 115 77 12 0 58 -7 102 -15z m-2432 -122 c-12 -11 -29 -38 -37 -58 -18 -41
-32 -39 -44 8 -5 20 -18 37 -35 45 -34 16 -34 24 1 44 15 9 34 28 42 42 l13
26 41 -43 41 -42 -22 -22z m570 -6 c24 -31 86 -101 136 -154 l92 -96 -39 -41
c-83 -88 -106 -114 -169 -199 l-67 -87 -14 32 c-8 18 -14 40 -13 50 1 9 -3 19
-9 23 -5 3 -10 -1 -10 -9 0 -9 -3 -16 -7 -16 -6 0 -253 251 -253 258 0 1 44
48 98 105 54 56 118 124 142 150 24 26 49 47 56 45 7 -2 32 -29 57 -61z
m-4886 -54 c-3 -10 -5 -4 -5 12 0 17 2 24 5 18 2 -7 2 -21 0 -30z m6350 -89
c-3 -3 -12 -4 -19 -1 -8 3 -5 6 6 6 11 1 17 -2 13 -5z m-6257 -25 c0 -6 -4 -7
-10 -4 -5 3 -10 11 -10 16 0 6 5 7 10 4 6 -3 10 -11 10 -16z m1470 -38 c148
-30 201 -38 320 -51 147 -15 200 -28 245 -59 58 -39 94 -126 66 -157 -5 -5
-12 -20 -16 -34 -5 -20 -4 -22 5 -10 9 12 10 1 5 -45 -3 -38 -11 -63 -21 -68
-11 -6 -12 -12 -4 -21 7 -10 6 -17 -5 -26 -8 -7 -15 -27 -15 -45 0 -24 -5 -34
-20 -38 -14 -3 -21 -17 -26 -46 -4 -24 -13 -43 -23 -46 -9 -3 -25 -12 -35 -20
-15 -12 -17 -17 -7 -29 15 -17 7 -36 -15 -36 -8 0 -14 -4 -14 -10 0 -5 -17
-12 -37 -16 -21 -4 -46 -13 -55 -22 -11 -9 -36 -14 -65 -14 -26 1 -50 -4 -54
-10 -5 -9 -43 -8 -146 4 -76 8 -143 11 -149 7 -16 -13 -70 50 -87 101 -27 82
-52 290 -59 492 -1 37 -5 48 -21 52 -13 3 -18 10 -13 21 3 9 7 40 7 68 l2 52
8 -40 c7 -34 7 -31 5 20 l-4 61 62 -7 c33 -4 108 -17 166 -28z m-535 9 c3 -6
2 -10 -4 -10 -15 0 -18 -117 -4 -230 7 -58 12 -160 13 -228 0 -110 -2 -128
-24 -170 -35 -70 -58 -86 -119 -86 -93 -1 -245 96 -304 193 -60 100 -92 316
-59 394 32 76 86 97 309 123 32 4 59 10 62 14 6 10 123 11 130 0z m5321 -171
c8 -63 39 -111 176 -275 60 -73 130 -158 154 -190 41 -56 70 -114 57 -114 -4
0 -53 47 -109 105 -56 58 -106 105 -111 105 -4 0 -19 16 -33 35 -14 19 -32 37
-40 40 -8 3 -31 26 -50 51 -19 25 -41 52 -48 60 -20 21 -64 144 -64 177 1 27
39 70 54 61 4 -3 10 -27 14 -55z m-8490 -74 c-4 -41 -14 -71 -34 -99 -33 -48
-442 -459 -449 -452 -17 16 122 205 264 360 99 109 173 208 173 233 0 7 6 22
13 33 11 19 13 19 25 3 10 -13 12 -35 8 -78z m8209 -263 c137 -133 200 -206
259 -300 43 -69 35 -66 -99 38 -55 42 -228 196 -270 239 -21 23 -45 41 -52 41
-10 0 -10 6 -2 27 11 29 37 63 48 63 3 0 56 -49 116 -108z m-7826 70 l20 -28
-77 -75 c-43 -41 -122 -111 -177 -156 -55 -45 -117 -98 -139 -117 -37 -35 -75
-50 -60 -23 45 74 378 427 404 427 5 0 18 -13 29 -28z m5380 -184 l29 -32 -25
-20 c-25 -19 -26 -19 -60 -1 l-35 19 26 21 c14 11 26 26 26 33 0 19 8 15 39
-20z m-1589 -138 c0 -5 -4 -10 -10 -10 -5 0 -10 5 -10 10 0 6 5 10 10 10 6 0
10 -4 10 -10z m-3510 -341 c69 -87 276 -291 344 -341 39 -29 142 -105 229
-170 147 -110 197 -137 197 -105 0 7 -16 43 -36 81 -35 67 -38 100 -6 61 10
-11 35 -34 57 -50 22 -17 45 -35 50 -42 45 -51 295 -234 490 -358 86 -54 284
-147 308 -143 18 3 15 10 -27 71 -48 70 -48 84 2 42 17 -14 41 -31 54 -38 12
-6 68 -42 123 -79 115 -76 269 -162 376 -208 159 -69 94 -65 -176 10 -148 41
-367 117 -511 176 -72 29 -153 60 -180 70 -70 23 -295 134 -464 228 -317 176
-700 451 -917 658 -35 33 -63 65 -63 72 0 13 90 102 106 105 6 0 26 -18 44
-40z m6399 -253 c5 -13 22 -32 37 -43 l28 -20 -23 -12 c-13 -7 -29 -28 -37
-47 -18 -43 -30 -43 -48 0 -8 18 -24 40 -36 49 l-22 15 24 16 c14 9 31 27 38
41 17 31 28 32 39 1z m-6659 -665 c19 -14 78 -57 130 -96 98 -74 400 -273 550
-362 425 -253 962 -477 1475 -617 464 -127 854 -193 1188 -201 86 -2 163 -8
170 -12 18 -11 93 -111 171 -228 137 -207 150 -221 167 -194 4 6 11 9 17 5 6
-4 8 2 5 14 -3 11 0 20 6 20 6 0 11 4 11 10 0 20 176 273 231 331 l34 36 190
12 c186 12 471 42 570 61 274 52 473 93 535 110 246 68 462 136 615 195 66 26
140 54 165 62 24 8 67 26 95 38 27 12 76 34 108 49 32 14 60 26 63 26 7 0 331
163 414 208 218 118 611 380 774 515 43 36 51 39 75 30 118 -49 194 -82 202
-90 12 -12 -32 -52 -126 -117 -38 -27 -86 -61 -105 -76 -39 -30 -244 -168
-332 -224 -32 -20 -82 -51 -110 -70 -156 -100 -462 -265 -633 -341 -501 -223
-975 -382 -1380 -464 -33 -7 -78 -16 -100 -21 -223 -47 -646 -100 -793 -100
-50 0 -52 -1 -87 -53 -192 -281 -421 -637 -442 -685 -7 -18 -18 -30 -23 -27
-5 3 -34 47 -64 98 -49 84 -411 635 -436 665 -7 7 -37 12 -78 12 -93 0 -289
18 -397 36 -49 8 -115 19 -145 24 -51 8 -114 20 -215 40 -104 20 -252 56 -435
107 -30 8 -68 18 -85 22 -37 9 -392 128 -420 140 -11 5 -65 26 -120 47 -94 35
-131 51 -300 127 -122 55 -396 197 -518 268 -65 38 -121 69 -125 69 -9 0 -515
343 -592 402 -36 27 -84 68 -108 91 l-42 41 87 44 c49 24 92 47 97 52 10 10
15 8 66 -29z"/>
<path d="M6480 14099 c0 -11 4 -18 10 -14 5 3 7 12 3 20 -7 21 -13 19 -13 -6z"/>
<path d="M7335 13990 c4 -6 11 -8 16 -5 14 9 11 15 -7 15 -8 0 -12 -5 -9 -10z"/>
<path d="M7671 13895 c-18 -8 -43 -15 -54 -15 -22 0 -81 -17 -109 -31 -10 -5
-27 -9 -38 -9 -11 0 -28 -4 -38 -9 -27 -15 -139 -61 -146 -61 -3 0 -25 -8 -49
-19 -82 -36 -98 -41 -127 -41 -16 0 -31 4 -35 9 -17 28 -168 -74 -228 -153
-14 -18 -47 -53 -72 -77 -51 -47 -130 -148 -122 -155 2 -2 10 2 17 11 7 8 17
15 23 15 6 0 25 16 43 35 26 29 36 34 61 29 20 -4 33 -1 42 10 8 9 19 16 26
16 8 0 34 15 58 34 25 19 58 42 74 50 15 9 37 22 48 29 103 65 284 155 425
212 63 26 129 53 145 60 34 16 170 62 200 68 11 3 -9 5 -45 5 -37 1 -80 -5
-99 -13z m-876 -444 c-3 -6 -11 -8 -17 -5 -6 4 -5 9 3 15 16 10 23 4 14 -10z"/>
<path d="M8630 13575 c-8 -9 -8 -15 -2 -15 12 0 26 19 19 26 -2 2 -10 -2 -17
-11z"/>
<path d="M8565 13510 c-3 -5 -1 -10 4 -10 6 0 11 5 11 10 0 6 -2 10 -4 10 -3
0 -8 -4 -11 -10z"/>
<path d="M8525 13480 c-3 -5 -1 -10 4 -10 6 0 11 5 11 10 0 6 -2 10 -4 10 -3
0 -8 -4 -11 -10z"/>
<path d="M6570 11320 c0 -5 5 -10 10 -10 6 0 10 5 10 10 0 6 -4 10 -10 10 -5
0 -10 -4 -10 -10z"/>
<path d="M9249 10074 c-9 -8 -22 -16 -30 -17 -28 -5 -40 -19 -33 -39 5 -17 3
-20 -11 -14 -12 4 -18 0 -22 -14 -3 -11 -9 -20 -14 -20 -11 0 -12 -27 -1 -34
5 -3 37 24 73 59 35 36 70 65 77 65 6 0 12 7 12 15 0 20 -31 19 -51 -1z"/>
<path d="M10570 9980 c0 -5 7 -10 16 -10 8 0 12 5 9 10 -3 6 -10 10 -16 10 -5
0 -9 -4 -9 -10z"/>
<path d="M9080 9920 c0 -5 5 -10 10 -10 6 0 10 5 10 10 0 6 -4 10 -10 10 -5 0
-10 -4 -10 -10z"/>
<path d="M9050 9879 c0 -5 5 -7 10 -4 6 3 10 8 10 11 0 2 -4 4 -10 4 -5 0 -10
-5 -10 -11z"/>
<path d="M9520 9880 c0 -5 4 -10 9 -10 6 0 13 5 16 10 3 6 -1 10 -9 10 -9 0
-16 -4 -16 -10z"/>
<path d="M2930 10105 c0 -8 52 -56 57 -52 2 3 -8 17 -22 31 -25 25 -35 31 -35
21z"/>
<path d="M3074 9970 c1 -8 11 -16 24 -18 26 -4 27 -10 5 -34 -20 -22 -10 -24
12 -2 15 15 18 14 46 -12 41 -39 36 -21 -6 21 -19 19 -43 35 -54 35 -11 0 -21
6 -24 13 -2 7 -3 6 -3 -3z"/>
<path d="M3151 9863 c11 -13 11 -17 2 -20 -23 -8 -14 -25 10 -17 31 9 31 10 8
33 -25 25 -39 28 -20 4z"/>
<path d="M3160 9810 c0 -5 5 -10 10 -10 6 0 10 5 10 10 0 6 -4 10 -10 10 -5 0
-10 -4 -10 -10z"/>
<path d="M3200 9781 c0 -5 7 -11 15 -15 8 -3 15 -1 15 3 0 5 -7 11 -15 15 -8
3 -15 1 -15 -3z"/>
<path d="M3240 9751 c0 -10 24 -21 43 -21 7 0 3 7 -7 15 -22 17 -36 19 -36 6z"/>
<path d="M3366 9751 c14 -13 64 -23 64 -12 0 9 -33 21 -59 21 -9 0 -11 -3 -5
-9z"/>
<path d="M2230 9694 c0 -8 5 -12 10 -9 6 4 8 11 5 16 -9 14 -15 11 -15 -7z"/>
<path d="M3746 9701 c-4 -5 3 -7 14 -4 23 6 26 13 6 13 -8 0 -17 -4 -20 -9z"/>
<path d="M2300 9680 c0 -5 9 -15 20 -22 11 -7 20 -18 20 -25 0 -7 9 -17 20
-23 12 -7 20 -21 20 -38 0 -21 2 -24 10 -12 17 26 11 38 -34 85 -46 46 -56 52
-56 35z"/>
<path d="M2250 9669 c0 -5 5 -7 10 -4 6 3 10 8 10 11 0 2 -4 4 -10 4 -5 0 -10
-5 -10 -11z"/>
<path d="M2287 9644 c-4 -7 2 -23 13 -37 11 -14 20 -29 20 -34 0 -5 9 -15 20
-23 11 -8 20 -22 20 -32 0 -10 7 -18 15 -18 8 0 15 9 15 20 0 11 -6 20 -13 20
-7 0 -19 16 -27 35 -7 19 -22 37 -31 40 -10 3 -19 14 -21 23 -2 11 -6 13 -11
6z"/>
<path d="M2570 9407 c0 -8 7 -17 15 -21 8 -3 15 -2 15 3 0 5 -7 14 -15 21 -12
10 -15 10 -15 -3z"/>
<path d="M2622 9353 c4 -22 38 -30 38 -10 0 8 -7 18 -16 21 -23 9 -26 8 -22
-11z"/>
<path d="M2707 9282 c3 -12 9 -25 14 -28 14 -8 11 10 -6 32 -13 18 -14 18 -8
-4z"/>
<path d="M3218 9153 c7 -3 16 -2 19 1 4 3 -2 6 -13 5 -11 0 -14 -3 -6 -6z"/>
<path d="M2790 9126 c0 -10 9 -16 21 -16 24 0 21 23 -4 28 -10 2 -17 -3 -17
-12z"/>
<path d="M3113 9133 c9 -2 23 -2 30 0 6 3 -1 5 -18 5 -16 0 -22 -2 -12 -5z"/>
<path d="M2667 9123 c-8 -7 11 -33 23 -33 5 0 6 9 3 20 -5 20 -15 25 -26 13z"/>
<path d="M2973 9113 c9 -2 23 -2 30 0 6 3 -1 5 -18 5 -16 0 -22 -2 -12 -5z"/>
<path d="M3311 9054 c0 -11 3 -14 6 -6 3 7 2 16 -1 19 -3 4 -6 -2 -5 -13z"/>
<path d="M3366 9041 c-4 -7 -5 -15 -2 -18 9 -9 19 4 14 18 -4 11 -6 11 -12 0z"/>
<path d="M2770 9016 c0 -9 5 -16 10 -16 6 0 10 4 10 9 0 6 -4 13 -10 16 -5 3
-10 -1 -10 -9z"/>
<path d="M3454 8869 c-3 -6 -1 -16 5 -22 8 -8 11 -5 11 11 0 24 -5 28 -16 11z"/>
<path d="M2825 5970 c3 -5 8 -10 11 -10 2 0 4 5 4 10 0 6 -5 10 -11 10 -5 0
-7 -4 -4 -10z"/>
<path d="M8038 8123 c6 -2 18 -2 25 0 6 3 1 5 -13 5 -14 0 -19 -2 -12 -5z"/>
<path d="M10386 6551 c-4 -5 -2 -12 3 -15 5 -4 12 -2 15 3 4 5 2 12 -3 15 -5
4 -12 2 -15 -3z"/>
<path d="M5491 5794 c0 -11 3 -14 6 -6 3 7 2 16 -1 19 -3 4 -6 -2 -5 -13z"/>
<path d="M6612 5270 c0 -19 2 -27 5 -17 2 9 2 25 0 35 -3 9 -5 1 -5 -18z"/>
<path d="M12636 4434 c-3 -9 -6 -17 -6 -18 0 -2 14 -3 30 -3 34 0 36 3 16 23
-19 18 -32 18 -40 -2z"/>
<path d="M10120 4130 c13 -23 20 -26 20 -6 0 8 -7 16 -15 20 -13 4 -14 2 -5
-14z"/>
<path d="M7796 991 c-4 -7 -5 -15 -2 -18 9 -9 19 4 14 18 -4 11 -6 11 -12 0z"/>
<path d="M5438 14219 c-10 -5 -57 -24 -105 -40 -75 -26 -283 -103 -348 -128
-48 -19 -76 -32 -168 -75 -54 -25 -101 -46 -106 -46 -4 0 -35 -13 -67 -29 -32
-16 -113 -56 -179 -88 -66 -32 -178 -91 -248 -130 -71 -40 -130 -73 -132 -73
-7 0 -252 -154 -327 -205 -44 -30 -81 -55 -83 -55 -5 0 -207 -150 -215 -159
-3 -3 -41 -33 -85 -65 -44 -33 -82 -62 -85 -66 -3 -3 -39 -33 -80 -66 -41 -32
-92 -76 -115 -98 -22 -21 -65 -59 -95 -85 -146 -123 -470 -448 -620 -621 -100
-116 -251 -303 -323 -400 -39 -52 -74 -97 -77 -100 -3 -3 -14 -18 -23 -33 -10
-16 -43 -57 -73 -93 -53 -63 -54 -64 -32 -73 13 -5 68 -28 122 -50 55 -23 107
-41 116 -41 19 0 41 24 90 95 43 63 202 276 234 313 13 15 70 83 127 152 57
68 214 235 349 371 243 243 279 278 415 394 39 33 72 63 75 66 11 12 220 177
281 220 222 160 476 323 679 434 119 66 475 245 485 245 5 0 25 9 138 59 26
12 105 44 175 72 70 28 134 58 143 67 9 9 34 51 55 92 21 41 52 98 69 125 73
117 77 125 63 125 -7 0 -21 -5 -30 -11z"/>
<path d="M9874 14005 c-58 -58 -104 -110 -102 -116 2 -6 91 -45 198 -88 266
-106 520 -232 820 -408 212 -123 602 -397 800 -562 36 -29 76 -63 90 -74 321
-261 802 -766 1046 -1097 22 -30 67 -91 99 -135 32 -44 60 -82 62 -84 2 -3 29
7 61 21 82 38 163 68 178 68 8 0 14 5 14 11 0 17 -39 79 -74 119 -18 19 -45
53 -62 75 -136 178 -179 234 -213 274 -21 25 -56 67 -77 92 -52 61 -219 246
-258 285 -17 17 -68 68 -113 115 -92 95 -316 314 -383 374 -144 129 -566 464
-620 492 -8 5 -80 51 -160 104 -251 166 -422 263 -743 423 -172 85 -329 162
-349 170 -21 9 -54 23 -73 31 l-36 16 -105 -106z"/>
</g>
</svg>
